name D:\school\WTK\thesis\model\3dpredictsim\Results\MidTarsalJoint\Fal_s1_bCst_PF_Natali2010_ls150_MT_k400_MTP_T2_ig24.mot
datacolumns 128
datarows 4
range 1.69211632 1.72595865
endheader
time	pelvis_tilt	pelvis_list	pelvis_rotation	pelvis_tx	pelvis_ty	pelvis_tz	hip_flexion_l	hip_adduction_l	hip_rotation_l	hip_flexion_r	hip_adduction_r	hip_rotation_r	knee_angle_l	knee_angle_r	ankle_angle_l	ankle_angle_r	subtalar_angle_l	subtalar_angle_r	mtj_angle_l	mtj_angle_r	mtp_angle_l	mtp_angle_r	lumbar_extension	lumbar_bending	lumbar_rotation	arm_flex_l	arm_add_l	arm_rot_l	arm_flex_r	arm_add_r	arm_rot_r	elbow_flex_l	elbow_flex_r	pro_sup_l	pro_sup_r	glut_med1_l/activation	glut_med2_l/activation	glut_med3_l/activation	glut_min1_l/activation	glut_min2_l/activation	glut_min3_l/activation	semimem_l/activation	semiten_l/activation	bifemlh_l/activation	bifemsh_l/activation	sar_l/activation	add_long_l/activation	add_brev_l/activation	add_mag1_l/activation	add_mag2_l/activation	add_mag3_l/activation	tfl_l/activation	pect_l/activation	grac_l/activation	glut_max1_l/activation	glut_max2_l/activation	glut_max3_l/activation	iliacus_l/activation	psoas_l/activation	quad_fem_l/activation	gem_l/activation	peri_l/activation	rect_fem_l/activation	vas_med_l/activation	vas_int_l/activation	vas_lat_l/activation	med_gas_l/activation	lat_gas_l/activation	soleus_l/activation	tib_post_l/activation	flex_dig_l/activation	flex_hal_l/activation	tib_ant_l/activation	per_brev_l/activation	per_long_l/activation	per_tert_l/activation	ext_dig_l/activation	ext_hal_l/activation	ercspn_l/activation	intobl_l/activation	extobl_l/activation	glut_med1_r/activation	glut_med2_r/activation	glut_med3_r/activation	glut_min1_r/activation	glut_min2_r/activation	glut_min3_r/activation	semimem_r/activation	semiten_r/activation	bifemlh_r/activation	bifemsh_r/activation	sar_r/activation	add_long_r/activation	add_brev_r/activation	add_mag1_r/activation	add_mag2_r/activation	add_mag3_r/activation	tfl_r/activation	pect_r/activation	grac_r/activation	glut_max1_r/activation	glut_max2_r/activation	glut_max3_r/activation	iliacus_r/activation	psoas_r/activation	quad_fem_r/activation	gem_r/activation	peri_r/activation	rect_fem_r/activation	vas_med_r/activation	vas_int_r/activation	vas_lat_r/activation	med_gas_r/activation	lat_gas_r/activation	soleus_r/activation	tib_post_r/activation	flex_dig_r/activation	flex_hal_r/activation	tib_ant_r/activation	per_brev_r/activation	per_long_r/activation	per_tert_r/activation	ext_dig_r/activation	ext_hal_r/activation	ercspn_r/activation	intobl_r/activation	extobl_r/activation	
          1.69211632	         -2.93017640	          2.01071404	         -5.20085543	          2.11514540	          0.91975135	          0.00180999	         29.57948568	          3.22462825	         -2.64319580	        -16.75572110	         -0.94393662	          7.22793416	        -12.31681889	         -8.10662015	          5.04407063	         -1.81531014	         -2.38654633	          9.89944124	         -0.01231771	          3.45225424	         -0.91863233	         14.84656147	         -2.21382611	         -0.33425508	          1.89434316	         -4.26240988	        -13.45123288	          7.53135607	          5.06548499	        -13.45828420	         16.84467196	         15.97921430	         33.94988330	         86.51662706	         86.51662706	          0.05940065	          0.05939911	          0.05000635	          0.05000331	          0.05000469	          0.05003576	          0.06111726	          0.05940143	          0.21682581	          0.05000144	          0.05000071	          0.12389238	          0.22362775	          0.15477473	          0.17169074	          0.09205656	          0.05000347	          0.05003237	          0.13416262	          0.05940363	          0.07056903	          0.10338643	          0.05000021	          0.05000022	          0.23547485	          0.05003708	          0.05002366	          0.05000020	          0.08071487	          0.08325347	          0.06779737	          0.05940001	          0.05735562	          0.05940056	          0.05000017	          0.05000116	          0.05000102	          0.48448228	          0.24059186	          0.17378983	          0.12028142	          0.46427814	          0.05000032	          0.05825426	          0.11833477	          0.10012591	          0.31780735	          0.09959987	          0.07439593	          0.32146472	          0.20901379	          0.10317443	          0.05000249	          0.05000052	          0.05000032	          0.06269354	          0.10366757	          0.05000053	          0.05000036	          0.05000042	          0.05000125	          0.05000107	          0.31585932	          0.05000175	          0.05000071	          0.05000673	          0.05000365	          0.05000180	          0.37737171	          0.60168455	          0.05000019	          0.05000070	          0.05000045	          0.19840386	          0.05000107	          0.05000111	          0.05000105	          0.28540323	          0.38658725	          0.32838899	          0.26996098	          0.25307144	          0.33856236	          0.05000011	          0.05940316	          0.13759403	          0.05000070	          0.05000018	          0.05000062	          0.05000003	          0.05000004	          0.05000015	
          1.70339710	         -2.92789660	          2.09990099	         -5.45802544	          2.13217632	          0.91890476	          0.00159939	         28.93440383	          3.63419805	         -2.45583718	        -16.60473636	         -1.23570983	          7.04848372	        -12.28882438	        -10.03811746	          4.40526957	         -2.43853100	         -2.78262105	         10.94778383	         -0.03762431	          2.69148123	         -0.92348664	         16.57539173	         -2.01904804	         -0.54505847	          1.97292299	         -5.13953288	        -13.44983329	          7.16180338	          4.75777978	        -13.47555678	         17.16327699	         15.65602576	         35.09837056	         86.51662706	         86.51662706	          0.05000009	          0.05000016	          0.05000056	          0.05000018	          0.05000023	          0.05000025	          0.05144499	          0.05000077	          0.18251162	          0.05000119	          0.05940267	          0.10430327	          0.25439362	          0.32026411	          0.19282633	          0.07748823	          0.05000021	          0.07058425	          0.11293177	          0.05000325	          0.05940131	          0.13169654	          0.06715930	          0.06859153	          0.56363996	          0.18798541	          0.15846297	          0.07203836	          0.20542630	          0.20469590	          0.17549161	          0.05000003	          0.05000007	          0.05000001	          0.05135077	          0.05000418	          0.05001206	          0.55645933	          0.20251642	          0.19145170	          0.26555085	          0.48809593	          0.05940199	          0.05000004	          0.09960732	          0.08428017	          0.26751183	          0.08383742	          0.06262265	          0.27059050	          0.17593577	          0.08684633	          0.05000451	          0.05000098	          0.05000155	          0.05277201	          0.08726186	          0.13134695	          0.10871208	          0.07055830	          0.05001499	          0.05000407	          0.26587230	          0.10094212	          0.06073962	          0.05000325	          0.05000212	          0.05000209	          0.31764964	          0.52689423	          0.05000987	          0.05984021	          0.05940099	          0.16700496	          0.14867765	          0.13337855	          0.11923685	          0.24023581	          0.32540667	          0.27641883	          0.22723810	          0.21302175	          0.28498307	          0.05000003	          0.05000239	          0.11585437	          0.05000019	          0.05000004	          0.05000024	          0.05000042	          0.07056892	          0.05951656	
          1.71467787	         -2.92134034	          2.19405181	         -5.68671205	          2.14953940	          0.91804886	          0.00141688	         28.14232356	          3.95318827	         -2.19454107	        -16.39498612	         -1.52745474	          6.85998124	        -12.61741732	        -12.06034437	          3.84827180	         -3.21596754	         -3.20061552	         11.95995506	         -0.17793784	          1.82577954	         -0.93422393	         18.34152183	         -1.80118404	         -0.76993929	          2.03995600	         -6.04927739	        -13.45910732	          6.85247415	          4.36049102	        -13.49165831	         17.39208426	         15.37916902	         36.25454092	         86.51662706	         86.51662706	          0.29391704	          0.05000064	          0.14871003	          0.05000213	          0.05000107	          0.30068608	          0.07858666	          0.09403447	          0.16393950	          0.05000024	          0.05000208	          0.08779664	          0.21413458	          0.26957992	          0.16231085	          0.11344891	          0.05000202	          0.05941680	          0.09507306	          0.05000045	          0.05000083	          0.11085469	          0.05939970	          0.05773668	          0.47443930	          0.15823529	          0.18191845	          0.06063771	          0.17291606	          0.17230126	          0.14771875	          0.05639305	          0.05668092	          0.05712113	          0.05000015	          0.05000083	          0.05000080	          0.52905636	          0.32379589	          0.16115316	          0.22352564	          0.54276751	          0.05000116	          0.05000005	          0.10490378	          0.07094215	          0.36932788	          0.07056950	          0.05271247	          0.22776774	          0.14809263	          0.07310226	          0.05000420	          0.05000105	          0.05000071	          0.05000025	          0.07345236	          0.14029920	          0.15110988	          0.05940280	          0.05939932	          0.05939464	          0.22380515	          0.08497052	          0.05113695	          0.05932671	          0.05939808	          0.05940019	          0.26737924	          0.51015835	          0.05940046	          0.05037102	          0.05000040	          0.14057509	          0.12515012	          0.11227228	          0.10036774	          0.20221650	          0.27390839	          0.23267326	          0.19127586	          0.17930953	          0.23988233	          0.05000085	          0.05000052	          0.16408342	          0.05000033	          0.06762875	          0.05000060	          0.05411282	          0.05940082	          0.05940077	
          1.72595865	         -2.91224015	          2.29248682	         -5.88171166	          2.16703714	          0.91719342	          0.00122726	         27.23298264	          4.21794887	         -1.92703839	        -16.08258691	         -1.81349265	          6.67422559	        -12.91334194	        -14.23493366	          3.38610339	         -4.12647830	         -3.62759001	         12.92180393	         -0.11194035	          0.88573014	         -0.91625700	         20.03721335	         -1.58066144	         -1.00541088	          2.09724045	         -6.94609944	        -13.47551321	          6.61870518	          3.90415658	        -13.51192157	         17.54513229	         15.12214208	         37.40639210	         86.51662706	         86.51662706	          0.36388827	          0.28475299	          0.30071283	          0.08740695	          0.24514042	          0.25310064	          0.06614989	          0.08166008	          0.13799480	          0.07056989	          0.05000346	          0.07390216	          0.18024608	          0.22691703	          0.13662473	          0.14519100	          0.05000071	          0.05001416	          0.08002761	          0.20752358	          0.15493520	          0.12050600	          0.05000015	          0.05000017	          0.39935544	          0.13319345	          0.15312867	          0.05104134	          0.16748342	          0.18251706	          0.13827158	          0.05000033	          0.05000043	          0.05000008	          0.05000006	          0.05000026	          0.05000030	          0.61733009	          0.28519865	          0.15429106	          0.54977228	          0.55007696	          0.27242445	          0.07401046	          0.08830194	          0.05971498	          0.31087906	          0.05940134	          0.05000007	          0.29275511	          0.12465592	          0.06153331	          0.05000452	          0.05000035	          0.05000028	          0.05000067	          0.06182927	          0.13780340	          0.12719600	          0.05000242	          0.05000166	          0.05000087	          0.18840678	          0.07153988	          0.05000086	          0.05000129	          0.05000085	          0.05000065	          0.22506436	          0.45434335	          0.05000012	          0.05000052	          0.05000041	          0.11832800	          0.10534953	          0.11831885	          0.10530718	          0.17021407	          0.23056013	          0.19585078	          0.16100493	          0.15093254	          0.20191914	          0.11232633	          0.14409176	          0.13811776	          0.05595905	          0.15073861	          0.05002504	          0.07691669	          0.05000016	          0.05000016	
